<svg width="245" height="108" viewBox="0 0 245 108" fill="none" xmlns="http://www.w3.org/2000/svg">
<path d="M42.4571 58.264C42.4571 59.416 42.3851 60.616 42.2411 61.864H14.3771C14.5691 64.36 15.3611 66.28 16.7531 67.624C18.1931 68.92 19.9451 69.568 22.0091 69.568C25.0811 69.568 27.2171 68.272 28.4171 65.68H41.5211C40.8491 68.32 39.6251 70.696 37.8491 72.808C36.1211 74.92 33.9371 76.576 31.2971 77.776C28.6571 78.976 25.7051 79.576 22.4411 79.576C18.5051 79.576 15.0011 78.736 11.9291 77.056C8.85709 75.376 6.45709 72.976 4.72909 69.856C3.00109 66.736 2.13709 63.088 2.13709 58.912C2.13709 54.736 2.97709 51.088 4.65709 47.968C6.38509 44.848 8.78509 42.448 11.8571 40.768C14.9291 39.088 18.4571 38.248 22.4411 38.248C26.3291 38.248 29.7851 39.064 32.8091 40.696C35.8331 42.328 38.1851 44.656 39.8651 47.68C41.5931 50.704 42.4571 54.232 42.4571 58.264ZM29.8571 55.024C29.8571 52.912 29.1371 51.232 27.6971 49.984C26.2571 48.736 24.4571 48.112 22.2971 48.112C20.2331 48.112 18.4811 48.712 17.0411 49.912C15.6491 51.112 14.7851 52.816 14.4491 55.024H29.8571ZM72.7123 79L65.0083 67.84L58.5283 79H45.2083L58.4563 58.48L44.8483 38.824H58.6723L66.3763 49.912L72.8563 38.824H86.1763L72.7123 59.056L86.5363 79H72.7123ZM103.592 44.512C104.792 42.64 106.448 41.128 108.56 39.976C110.672 38.824 113.144 38.248 115.976 38.248C119.288 38.248 122.288 39.088 124.976 40.768C127.664 42.448 129.776 44.848 131.312 47.968C132.896 51.088 133.688 54.712 133.688 58.84C133.688 62.968 132.896 66.616 131.312 69.784C129.776 72.904 127.664 75.328 124.976 77.056C122.288 78.736 119.288 79.576 115.976 79.576C113.192 79.576 110.72 79 108.56 77.848C106.448 76.696 104.792 75.208 103.592 73.384V98.152H91.2804V38.824H103.592V44.512ZM121.16 58.84C121.16 55.768 120.296 53.368 118.568 51.64C116.888 49.864 114.8 48.976 112.304 48.976C109.856 48.976 107.768 49.864 106.04 51.64C104.36 53.416 103.52 55.84 103.52 58.912C103.52 61.984 104.36 64.408 106.04 66.184C107.768 67.96 109.856 68.848 112.304 68.848C114.752 68.848 116.84 67.96 118.568 66.184C120.296 64.36 121.16 61.912 121.16 58.84ZM146.34 34.648C144.18 34.648 142.404 34.024 141.012 32.776C139.668 31.48 138.996 29.896 138.996 28.024C138.996 26.104 139.668 24.52 141.012 23.272C142.404 21.976 144.18 21.328 146.34 21.328C148.452 21.328 150.18 21.976 151.524 23.272C152.916 24.52 153.612 26.104 153.612 28.024C153.612 29.896 152.916 31.48 151.524 32.776C150.18 34.024 148.452 34.648 146.34 34.648ZM152.46 38.824V79H140.148V38.824H152.46ZM158.934 58.912C158.934 54.736 159.774 51.088 161.454 47.968C163.182 44.848 165.558 42.448 168.582 40.768C171.654 39.088 175.158 38.248 179.094 38.248C184.134 38.248 188.334 39.568 191.694 42.208C195.102 44.848 197.334 48.568 198.39 53.368H185.286C184.182 50.296 182.046 48.76 178.878 48.76C176.622 48.76 174.822 49.648 173.478 51.424C172.134 53.152 171.462 55.648 171.462 58.912C171.462 62.176 172.134 64.696 173.478 66.472C174.822 68.2 176.622 69.064 178.878 69.064C182.046 69.064 184.182 67.528 185.286 64.456H198.39C197.334 69.16 195.102 72.856 191.694 75.544C188.286 78.232 184.086 79.576 179.094 79.576C175.158 79.576 171.654 78.736 168.582 77.056C165.558 75.376 163.182 72.976 161.454 69.856C159.774 66.736 158.934 63.088 158.934 58.912ZM242.848 58.264C242.848 59.416 242.776 60.616 242.632 61.864H214.768C214.96 64.36 215.752 66.28 217.144 67.624C218.584 68.92 220.336 69.568 222.4 69.568C225.472 69.568 227.608 68.272 228.808 65.68H241.912C241.24 68.32 240.016 70.696 238.24 72.808C236.512 74.92 234.328 76.576 231.688 77.776C229.048 78.976 226.096 79.576 222.832 79.576C218.896 79.576 215.392 78.736 212.32 77.056C209.248 75.376 206.848 72.976 205.12 69.856C203.392 66.736 202.528 63.088 202.528 58.912C202.528 54.736 203.368 51.088 205.048 47.968C206.776 44.848 209.176 42.448 212.248 40.768C215.32 39.088 218.848 38.248 222.832 38.248C226.72 38.248 230.176 39.064 233.2 40.696C236.224 42.328 238.576 44.656 240.256 47.68C241.984 50.704 242.848 54.232 242.848 58.264ZM230.248 55.024C230.248 52.912 229.528 51.232 228.088 49.984C226.648 48.736 224.848 48.112 222.688 48.112C220.624 48.112 218.872 48.712 217.432 49.912C216.04 51.112 215.176 52.816 214.84 55.024H230.248Z" fill="#FE043C"/>
</svg>
